<svg xmlns="http://www.w3.org/2000/svg" width="576" height="970" viewBox="0 0 576 970" fill="none"><title>Calendar — Events — History shown</title><desc>Editable reconstruction from calendar-155322-public-events-history.png. Public Acad-calendar events only, no private class timetable. Native text and vector icon approximations. Cursor/hover omitted. Content is clipped at the observed bottom-navigation boundary.</desc><rect id="ScreenBackground" width="576" height="970" fill="#FFFFFF"/><defs><clipPath id="EventsViewport"><rect x="0" y="188" width="576" height="732"/></clipPath></defs><g id="EventsHeader"><text x="273" y="73" fill="#141414" font-family="sans-serif" font-size="29" font-weight="700" text-anchor="middle">Events</text><g id="HistoryToggle"><path d="M328 63L335 56L342 63Z" fill="#575757"/><text x="284" y="101" fill="#4A4A4A" font-family="sans-serif" font-size="18" font-weight="600" text-anchor="middle">Hide History</text></g><g id="ViewMode"><path d="M511 46.5H576V99.5H511Q500 99.5 500 88.5V57.5Q500 46.5 511 46.5Z" fill="#E59B7B"/><rect x="513" y="58" width="25" height="25" rx="2" stroke="#FFFFFF" stroke-width="3.5"/><path d="M513 65H538M522 58V83M513 74H538" stroke="#FFFFFF" stroke-width="3"/><circle cx="533" cy="78" r="8" fill="#E59B7B" stroke="#FFFFFF" stroke-width="3.5"/><path d="M533 73V79L537 81" stroke="#FFFFFF" stroke-width="2.5" stroke-linecap="round"/></g><path d="M0 118.5H576" stroke="#D9DBDE" stroke-width="1.5"/></g><g xmlns="http://www.w3.org/2000/svg" id="CalendarCategory" transform="translate(-8,-393)"><g id="AcadCalendarIcon"><circle cx="35" cy="548" r="4.2" stroke="#4B4B4B" stroke-width="1.2" /><circle cx="47" cy="548" r="4.2" stroke="#4B4B4B" stroke-width="1.2" /><path d="M39.2 548Q41 544 43 548M31.4 546L33 537L35 537M50.6 546L49 537L47 537" stroke="#4B4B4B" stroke-width="1.2" /></g><text x="63" y="553" fill="#494949" font-family="sans-serif" font-size="17.5" font-weight="400">Acad calendar</text></g><g xmlns="http://www.w3.org/2000/svg" id="Filter" transform="translate(7,-346)"><rect x="510" y="481" width="43" height="43" rx="11" fill="#FFFFFF" stroke="#E59B7B" stroke-width="1.5" /><path d="M521 490H542L535 502V514L529 511V502Z" fill="#E59B7B" /></g><g id="PublicEvents" clip-path="url(#EventsViewport)"><g id="MonthBand-August-2026"><rect x="0" y="188" width="576" height="39" fill="#F4F4F4"/><text x="15" y="214" fill="#505050" font-family="sans-serif" font-size="17" font-weight="400" >August, 2026</text></g><g id="EventCard-Aug31-AddDrop"><text x="57" y="258" fill="#555555" font-family="sans-serif" font-size="17" font-weight="400" text-anchor="middle">Mon</text><text x="57" y="295" fill="#555555" font-family="sans-serif" font-size="27" font-weight="400" text-anchor="middle">31</text><rect x="115" y="235" width="436" height="77" rx="10" fill="#EBF8FF"/><text x="138" y="271" fill="#141414" font-family="sans-serif" font-size="17" font-weight="600" >Add/Drop period for Semester One</text><text x="138" y="293" fill="#141414" font-family="sans-serif" font-size="17" font-weight="600" >commences</text><g id="EventMenu-Aug31-AddDrop"><circle cx="513" cy="273.5" r="2.7" fill="#9FB2BE"/><circle cx="521.5" cy="273.5" r="2.7" fill="#9FB2BE"/><circle cx="530" cy="273.5" r="2.7" fill="#9FB2BE"/></g></g><g id="EventCard-Aug31-Teaching"><rect x="115" y="320" width="436" height="77" rx="10" fill="#EBF8FF"/><text x="138" y="354" fill="#141414" font-family="sans-serif" font-size="17" font-weight="600" >Semester One teaching commences (13</text><text x="138" y="376" fill="#141414" font-family="sans-serif" font-size="17" font-weight="600" >teaching weeks)</text><g id="EventMenu-Aug31-Teaching"><circle cx="513" cy="358.5" r="2.7" fill="#9FB2BE"/><circle cx="521.5" cy="358.5" r="2.7" fill="#9FB2BE"/><circle cx="530" cy="358.5" r="2.7" fill="#9FB2BE"/></g></g><g id="MonthBand-September-2026"><rect x="0" y="404" width="576" height="39" fill="#F4F4F4"/><text x="15" y="430" fill="#505050" font-family="sans-serif" font-size="17" font-weight="400" >September, 2026</text></g><g id="EventCard-Sep12"><text x="57" y="473" fill="#555555" font-family="sans-serif" font-size="17" font-weight="400" text-anchor="middle">Sat</text><text x="57" y="510" fill="#555555" font-family="sans-serif" font-size="27" font-weight="400" text-anchor="middle">12</text><rect x="115" y="450" width="436" height="77" rx="10" fill="#EBF8FF"/><text x="138" y="486" fill="#141414" font-family="sans-serif" font-size="17" font-weight="600" >Add/Drop period for Semester One</text><text x="138" y="508" fill="#141414" font-family="sans-serif" font-size="17" font-weight="600" >ends</text><g id="EventMenu-Sep12"><circle cx="513" cy="488.5" r="2.7" fill="#9FB2BE"/><circle cx="521.5" cy="488.5" r="2.7" fill="#9FB2BE"/><circle cx="530" cy="488.5" r="2.7" fill="#9FB2BE"/></g></g><g id="EventCard-Sep25"><text x="57" y="566" fill="#555555" font-family="sans-serif" font-size="17" font-weight="400" text-anchor="middle">Fri</text><text x="57" y="603" fill="#555555" font-family="sans-serif" font-size="27" font-weight="400" text-anchor="middle">25</text><rect x="115" y="543" width="436" height="84" rx="10" fill="#EBF8FF"/><text x="138" y="569" fill="#141414" font-family="sans-serif" font-size="17" font-weight="600" >Chinese Mid-Autumn Festival (all</text><text x="138" y="591" fill="#141414" font-family="sans-serif" font-size="17" font-weight="600" >evening classes/examinations</text><text x="138" y="613" fill="#141414" font-family="sans-serif" font-size="17" font-weight="600" >suspended)</text><g id="EventMenu-Sep25"><circle cx="513" cy="585.0" r="2.7" fill="#9FB2BE"/><circle cx="521.5" cy="585.0" r="2.7" fill="#9FB2BE"/><circle cx="530" cy="585.0" r="2.7" fill="#9FB2BE"/></g></g><g id="EventCard-Sep26"><text x="57" y="665" fill="#555555" font-family="sans-serif" font-size="17" font-weight="400" text-anchor="middle">Sat</text><text x="57" y="702" fill="#555555" font-family="sans-serif" font-size="27" font-weight="400" text-anchor="middle">26</text><rect x="115" y="642" width="436" height="77" rx="10" fill="#EBF8FF"/><text x="138" y="678" fill="#141414" font-family="sans-serif" font-size="17" font-weight="600" >General holiday (The day following Mid-</text><text x="138" y="700" fill="#141414" font-family="sans-serif" font-size="17" font-weight="600" >Autumn Festival)</text><g id="EventMenu-Sep26"><circle cx="513" cy="680.5" r="2.7" fill="#9FB2BE"/><circle cx="521.5" cy="680.5" r="2.7" fill="#9FB2BE"/><circle cx="530" cy="680.5" r="2.7" fill="#9FB2BE"/></g></g><g id="MonthBand-October-2026"><rect x="0" y="726" width="576" height="39" fill="#F4F4F4"/><text x="15" y="752" fill="#505050" font-family="sans-serif" font-size="17" font-weight="400" >October, 2026</text></g><g id="EventCard-Oct01"><text x="57" y="796" fill="#555555" font-family="sans-serif" font-size="17" font-weight="400" text-anchor="middle">Thu</text><text x="57" y="833" fill="#555555" font-family="sans-serif" font-size="27" font-weight="400" text-anchor="middle">01</text><rect x="115" y="773" width="436" height="77" rx="10" fill="#EBF8FF"/><text x="138" y="818.5" fill="#141414" font-family="sans-serif" font-size="17" font-weight="600" >General holiday (National Day)</text><g id="EventMenu-Oct01"><circle cx="513" cy="811.5" r="2.7" fill="#9FB2BE"/><circle cx="521.5" cy="811.5" r="2.7" fill="#9FB2BE"/><circle cx="530" cy="811.5" r="2.7" fill="#9FB2BE"/></g></g><g id="EventCard-Oct10"><text x="57" y="888" fill="#555555" font-family="sans-serif" font-size="17" font-weight="400" text-anchor="middle">Sat</text><text x="57" y="925" fill="#555555" font-family="sans-serif" font-size="27" font-weight="400" text-anchor="middle">10</text><rect x="115" y="865" width="436" height="84" rx="10" fill="#EBF8FF"/><text x="138" y="892" fill="#141414" font-family="sans-serif" font-size="17" font-weight="600" >PolyU Undergraduate Info Day 2026 (all</text><text x="138" y="914" fill="#141414" font-family="sans-serif" font-size="17" font-weight="600" >day-time and evening classes/</text><text x="138" y="936" fill="#141414" font-family="sans-serif" font-size="17" font-weight="600" >examinations suspended)</text><g id="EventMenu-Oct10"><circle cx="513" cy="907.0" r="2.7" fill="#9FB2BE"/><circle cx="521.5" cy="907.0" r="2.7" fill="#9FB2BE"/><circle cx="530" cy="907.0" r="2.7" fill="#9FB2BE"/></g></g><rect x="559" y="226" width="14" height="27" rx="7" fill="#FFFFFF" fill-opacity="0.5" stroke="#E7E9EA" stroke-width="1.5"/></g><g xmlns="http://www.w3.org/2000/svg" id="BottomNavigation">
    <rect x="0" y="920" width="576" height="50" fill="#FFFFFF" />
    <g id="NavHome">
      <path d="M44.5 944L57.5 934L70.5 944V962H61.5V950H53.5V962H44.5Z" stroke="#9FB0BA" stroke-width="3.5" stroke-linecap="round" stroke-linejoin="round" />
    </g>
    <g id="NavCalendar">
      <circle cx="166" cy="942" r="18" fill="#F2F9B4" /><rect x="161" y="937" width="24" height="25" stroke="#414141" stroke-width="3.5" />
      <path d="M166 933V940M181 933V940M161 945H185M167 950H178M167 956H178" stroke="#414141" stroke-width="3.5" stroke-linecap="square" />
    </g>
    <g id="NavQR">
      <circle cx="288.5" cy="949.5" r="49.5" fill="#54B39F" />
      <path d="M271 932H281V942H271ZM296 932H306V942H296ZM271 956H281V966H271Z" fill="#FFFFFF" />
      <path d="M274.5 935.5H277.5V938.5H274.5ZM299.5 935.5H302.5V938.5H299.5ZM274.5 959.5H277.5V962.5H274.5Z" fill="#54B39F" />
      <path d="M285 932H289V938H285ZM286 943H290V947H286ZM273 946H279V951H273ZM282 949H289V954H282ZM290 951H295V957H290ZM300 946H306V950H300ZM297 953H302V957H297ZM304 953H307V963H304ZM286 960H290V966H286ZM295 961H300V966H295Z" fill="#FFFFFF" />
    </g>
    <g id="NavNotification">
      <path d="M390 935.5H417.5V956.5H407L399.5 963V956.5H390Z" stroke="#9FB0BA" stroke-width="3.5" stroke-linejoin="round" />
    </g>
    <g id="NavMore">
      <rect x="500" y="934" width="35" height="30" rx="2" stroke="#929D96" stroke-width="3.5" />
      <path d="M507 967H528" stroke="#929D96" stroke-width="3.5" stroke-linecap="round" />
    </g>
  </g>
</svg>