<svg xmlns="http://www.w3.org/2000/svg" width="576" height="970" viewBox="0 0 576 970" fill="none"><title>Calendar — Week 5 selector wheel-scrolled — DEMO</title><desc>Public native source calendar-174300-selector-thirteen-header-five-only.png, header/picker/day strip only. Editable vector/text approximation; cursor/shadow omitted. Lower timetable is synthetic DEMO copied from calendar-week-demo.svg and shifted by 186px; this is not observed private body content. Header remains Week 5 in both states. Two discrete prototype states; no continuous wheel, bounds, arbitrary week selection, semester switching or successful different-week application. Figma input proxy configured separately.</desc><defs><clipPath id="ViewportClip"><rect width="576" height="970" /></clipPath><clipPath id="HomeContentClip"><rect y="100" width="576" height="820" /></clipPath><clipPath id="SyntheticExpandedBodyClip"><rect x="0" y="309" width="576" height="611" /></clipPath></defs><g clip-path="url(#ViewportClip)"><rect x="0" y="0" width="576" height="970" rx="0" fill="#FFFFFF" /><rect x="0" y="0" width="576" height="113" rx="0" fill="#FFFFFF" /><g id="WeekSelector"><rect x="220" y="38" width="135" height="45" fill="#FFFFFF" fill-opacity="0" /><text x="275" y="70" fill="#171717" font-family="sans-serif" font-size="26" font-weight="700" text-anchor="middle">Week 5</text><path d="M331 65H346L338 57Z" fill="#565656" /></g><text x="288" y="101" fill="#505050" font-family="sans-serif" font-size="19" font-weight="700" text-anchor="middle">Sep-Oct | 2026-27 Semester 1</text><g id="MonthView"><rect x="500" y="47" width="76" height="54" rx="12" fill="#E4A17D" /><rect x="514" y="62" width="28" height="26" rx="2" stroke="white" stroke-width="3" /><path d="M520 56V66M536 56V66M514 70H542M519 76H537M519 82H537" stroke="white" stroke-width="3" /></g><g id="DemoNotice"><rect x="444" y="7" width="116" height="25" rx="6" fill="#FFF0CF" /><text x="502" y="25" fill="#775313" font-family="sans-serif" font-size="14" font-weight="700" text-anchor="middle">DEMO DATA</text></g><g id="WeekWheelInputProxy"><rect x="103" y="113" width="448" height="185" fill="#FFFFFF" /><path d="M103 175H448" stroke="#D3D3D3" stroke-width="1" /><path d="M103 238H448" stroke="#D3D3D3" stroke-width="1" /><path d="M11 298H551" stroke="#D3D3D3" stroke-width="1" /><text x="215" y="151" fill="#505050" font-family="sans-serif" font-size="20" text-anchor="middle">2025-26 Sem 3</text><text x="215" y="214" fill="#171717" font-family="sans-serif" font-size="23" text-anchor="middle">2026-27 Sem 1</text><text x="215" y="274" fill="#505050" font-family="sans-serif" font-size="20" text-anchor="middle">2026-27 Sem 2</text><text x="400" y="151" fill="#505050" font-family="sans-serif" font-size="20" text-anchor="middle">Week 12</text><text x="400" y="214" fill="#171717" font-family="sans-serif" font-size="23" text-anchor="middle">Week 13</text></g><g clip-path="url(#SyntheticExpandedBodyClip)"><g id="SyntheticExpandedTimetable" transform="translate(0 186)"><rect x="82" y="123" width="494" height="74" rx="14" fill="#D2EF41" /><g id="WeekDayMon"><text x="125" y="149" fill="#52652A" font-family="sans-serif" font-size="19" font-weight="400" text-anchor="middle">Mon</text><text x="125" y="185" fill="#52652A" font-family="sans-serif" font-size="29" font-weight="400" text-anchor="middle">28</text></g><g id="WeekDayTue"><text x="212" y="149" fill="#52652A" font-family="sans-serif" font-size="19" font-weight="400" text-anchor="middle">Tue</text><text x="212" y="185" fill="#52652A" font-family="sans-serif" font-size="29" font-weight="400" text-anchor="middle">29</text></g><g id="WeekDayWed"><text x="299" y="149" fill="#52652A" font-family="sans-serif" font-size="19" font-weight="400" text-anchor="middle">Wed</text><text x="299" y="185" fill="#52652A" font-family="sans-serif" font-size="29" font-weight="400" text-anchor="middle">30</text></g><g id="WeekDayThu"><text x="386" y="149" fill="#52652A" font-family="sans-serif" font-size="19" font-weight="400" text-anchor="middle">Thu</text><text x="386" y="185" fill="#52652A" font-family="sans-serif" font-size="29" font-weight="400" text-anchor="middle">01</text></g><g id="WeekDayFri"><text x="473" y="149" fill="#52652A" font-family="sans-serif" font-size="19" font-weight="400" text-anchor="middle">Fri</text><text x="473" y="185" fill="#52652A" font-family="sans-serif" font-size="29" font-weight="400" text-anchor="middle">02</text></g><g id="WeekDaySat"><text x="560" y="149" fill="#52652A" font-family="sans-serif" font-size="19" font-weight="400" text-anchor="middle">Sat</text><text x="560" y="185" fill="#52652A" font-family="sans-serif" font-size="29" font-weight="400" text-anchor="middle">03</text></g><path d="M82 287L576 287" stroke="#F0F0F0" stroke-width="1" /><text x="60" y="293" fill="#171717" font-family="sans-serif" font-size="14" font-weight="400" text-anchor="end">08:30</text><path d="M82 374L576 374" stroke="#F0F0F0" stroke-width="1" /><text x="60" y="380" fill="#171717" font-family="sans-serif" font-size="14" font-weight="400" text-anchor="end">09:30</text><path d="M82 461L576 461" stroke="#F0F0F0" stroke-width="1" /><text x="60" y="467" fill="#171717" font-family="sans-serif" font-size="14" font-weight="400" text-anchor="end">10:30</text><path d="M82 548L576 548" stroke="#F0F0F0" stroke-width="1" /><text x="60" y="554" fill="#171717" font-family="sans-serif" font-size="14" font-weight="400" text-anchor="end">11:30</text><path d="M82 635L576 635" stroke="#F0F0F0" stroke-width="1" /><text x="60" y="641" fill="#171717" font-family="sans-serif" font-size="14" font-weight="400" text-anchor="end">12:30</text><path d="M82 722L576 722" stroke="#F0F0F0" stroke-width="1" /><text x="60" y="728" fill="#171717" font-family="sans-serif" font-size="14" font-weight="400" text-anchor="end">13:30</text><path d="M82 809L576 809" stroke="#F0F0F0" stroke-width="1" /><text x="60" y="815" fill="#171717" font-family="sans-serif" font-size="14" font-weight="400" text-anchor="end">14:30</text><path d="M82 896L576 896" stroke="#F0F0F0" stroke-width="1" /><text x="60" y="902" fill="#171717" font-family="sans-serif" font-size="14" font-weight="400" text-anchor="end">15:30</text><path d="M82 983L576 983" stroke="#F0F0F0" stroke-width="1" /><text x="60" y="989" fill="#171717" font-family="sans-serif" font-size="14" font-weight="400" text-anchor="end">16:30</text><path d="M82 197L82 920" stroke="#EFEFEF" stroke-width="1" /><path d="M169 197L169 920" stroke="#EFEFEF" stroke-width="1" /><path d="M256 197L256 920" stroke="#EFEFEF" stroke-width="1" /><path d="M343 197L343 920" stroke="#EFEFEF" stroke-width="1" /><path d="M430 197L430 920" stroke="#EFEFEF" stroke-width="1" /><path d="M517 197L517 920" stroke="#EFEFEF" stroke-width="1" /><g id="DemoClass1"><rect x="169" y="374" width="86" height="174" rx="6" fill="#F4FBED" /><text x="177" y="398" fill="#171717" font-family="sans-serif" font-size="13" font-weight="400">EXM101</text><text x="177" y="416" fill="#171717" font-family="sans-serif" font-size="13" font-weight="400">DEMO</text><text x="177" y="434" fill="#171717" font-family="sans-serif" font-size="11" font-weight="400">ROOM A</text></g><g id="DemoClass2"><rect x="430" y="548" width="86" height="174" rx="6" fill="#F4FBED" /><text x="438" y="572" fill="#171717" font-family="sans-serif" font-size="13" font-weight="400">EXM202</text><text x="438" y="590" fill="#171717" font-family="sans-serif" font-size="13" font-weight="400">DEMO</text><text x="438" y="608" fill="#171717" font-family="sans-serif" font-size="11" font-weight="400">ROOM B</text></g><rect x="82" y="838" width="494" height="53" rx="6" fill="#FFF6DE" /><text x="329" y="870" fill="#775313" font-family="sans-serif" font-size="19" font-weight="700" text-anchor="middle">Synthetic timetable · DEMO</text></g></g><g id="BottomNavigation"><rect x="0" y="920" width="576" height="50" rx="0" fill="#FFFFFF" /><g id="NavHome"><path d="M40 947L53 935L68 947V962H57V951H49V962H40Z" stroke="#9FB0B9" stroke-width="3.5" stroke-linejoin="round" /></g><g id="NavCalendar"><rect x="161" y="937" width="23" height="27" rx="1" stroke="#9FB0B9" stroke-width="4" /><path d="M166 932V941M179 932V941M164 944H182M166 951H179M166 957H179" stroke="#9FB0B9" stroke-width="3" /></g><g id="NavQR"><circle cx="288" cy="949" r="49" fill="#58B1A2" /><rect x="273" y="932" width="11" height="11" rx="0" fill="none" stroke="#FFFFFF" stroke-width="3" /><rect x="294" y="932" width="11" height="11" rx="0" fill="none" stroke="#FFFFFF" stroke-width="3" /><rect x="273" y="952" width="11" height="11" rx="0" fill="none" stroke="#FFFFFF" stroke-width="3" /><path d="M294 952H300V958H306V964H294V959H288" stroke="#FFFFFF" stroke-width="3" /></g><g id="NavNotification"><path d="M391 937H417V956H402L395 963V956H391Z" stroke="#9FB0B9" stroke-width="4" stroke-linejoin="round" /></g><g id="NavMore"><path d="M505 935H534V959H505ZM511 965H514M519 965H522M527 965H530" stroke="#9FB0B9" stroke-width="4" /></g></g></g></svg>