<?xml version='1.0' encoding='utf-8'?>
<svg xmlns="http://www.w3.org/2000/svg" width="576" height="1024" viewBox="0 0 576 1024" fill="none"><title>Home — synthetic DEMO retained October3 Payment caller</title><desc>Editable finite Home derived from E-NATIVE-PAYNAV-02, S-NATIVE-PAYNAV-HOME3. Private values wholly synthetic DEMO. Calendar return observed to October3 Payment only. Static scrolled geometry approximate; no universal persistence or other Home controls implemented.</desc><defs><clipPath id="ViewportClip"><rect width="576" height="1024" /></clipPath><clipPath id="HomeContentClip"><rect y="100" width="576" height="820" /></clipPath></defs><g clip-path="url(#ViewportClip)"><rect x="0" y="0" width="576" height="1024" rx="0" fill="#FFFFFF" /><g clip-path="url(#HomeContentClip)"><text x="27" y="340" fill="#171717" font-family="sans-serif" font-size="27" font-weight="700" transform="translate(0,-170)">My Exam</text><rect x="147" y="315" width="36" height="26" rx="14" fill="#F0F0F0" transform="translate(0,-170)" /><text x="165" y="337" fill="#171717" font-family="sans-serif" font-size="21" font-weight="400" text-anchor="middle" transform="translate(0,-170)">2</text><g id="DemoExamCards" transform="translate(0,-170)"><rect x="28" y="361" width="426" height="229" rx="16" fill="#FFFFFF" stroke="#E3F0F8" stroke-width="1.5" /><rect x="29" y="549" width="424" height="40" rx="0" fill="#EFF9FF" /><g transform="translate(40,377)" stroke="#59B29F" stroke-width="2.5"><rect width="18" height="19" /><path d="M0 5H18M5 -3V3M13 -3V3M5 9H10V14H5Z" /></g><text x="72" y="396" fill="#171717" font-family="sans-serif" font-size="22" font-weight="700">Nov 01, 2030</text><circle cx="49" cy="416" r="11" fill="#59B29F" /><path d="M49 410V416H54" stroke="#FFFFFF" stroke-width="1.3" /><text x="72" y="425" fill="#171717" font-family="sans-serif" font-size="22" font-weight="700">10:00–11:00</text><path d="M49 459C29 438 69 438 49 459Z" fill="#59B29F" /><circle cx="49" cy="445" r="2.5" fill="#FFFFFF" /><text x="72" y="456" fill="#171717" font-family="sans-serif" font-size="22" font-weight="700">EXAMPLE HALL</text><text x="40" y="535" fill="#171717" font-family="sans-serif" font-size="22" font-weight="400">Example Assessment · DEMO</text><text x="238" y="578" fill="#171717" font-family="sans-serif" font-size="22" font-weight="700" text-anchor="middle">EXM2001</text><circle cx="417" cy="416" r="25" fill="#E2F5FF" /><g transform="translate(409,405)" stroke="#333D3F" stroke-width="1.4"><rect width="15" height="22" /><path d="M4 0V22M-3 3H3M-3 9H3M-3 15H3M-3 21H3" /></g><rect x="470" y="361" width="426" height="229" rx="16" fill="#FFFFFF" stroke="#E3F0F8" stroke-width="1.5" /><rect x="471" y="549" width="424" height="40" rx="0" fill="#EFF9FF" /><g transform="translate(482,377)" stroke="#59B29F" stroke-width="2.5"><rect width="18" height="19" /><path d="M0 5H18M5 -3V3M13 -3V3M5 9H10V14H5Z" /></g><text x="514" y="396" fill="#171717" font-family="sans-serif" font-size="22" font-weight="700">Nov 02, 2030</text><circle cx="491" cy="416" r="11" fill="#59B29F" /><path d="M491 410V416H496" stroke="#FFFFFF" stroke-width="1.3" /><text x="514" y="425" fill="#171717" font-family="sans-serif" font-size="22" font-weight="700">09:00–10:00</text><path d="M491 459C471 438 511 438 491 459Z" fill="#59B29F" /><circle cx="491" cy="445" r="2.5" fill="#FFFFFF" /><text x="514" y="456" fill="#171717" font-family="sans-serif" font-size="22" font-weight="700">EXAMPLE</text><text x="482" y="535" fill="#171717" font-family="sans-serif" font-size="22" font-weight="400">Example task</text></g><g id="Features" transform="translate(0,-162)"><g id="FeatureMap"><g transform="translate(90,661)" stroke="#818381" stroke-width="3.5" stroke-linejoin="round" stroke-linecap="round"><path d="M1 10C1 -10 32 -10 32 10C32 21 17 36 17 36C17 36 1 21 1 10Z" /><path d="M10 8C10 -3 27 -3 27 8C27 17 19 27 19 27Z" fill="#D5E639" stroke="none" /><circle cx="17" cy="9" r="3" fill="#818381" stroke="none" /></g><text x="106" y="730" fill="#545454" font-family="sans-serif" font-size="22" font-weight="400" text-anchor="middle">Map</text></g><g id="FeatureRoom"><g transform="translate(273,662)" stroke="#818381" stroke-width="3.5" stroke-linejoin="round" stroke-linecap="round"><rect x="0" y="-1" width="31" height="37" rx="4" /><path d="M-5 39H36" /><rect x="12" y="23" width="19" height="15" rx="5" fill="#DEE73D" stroke="none" /><path d="M8 38V29Q8 22 19 24V38" /></g><text x="289" y="731" fill="#545454" font-family="sans-serif" font-size="22" font-weight="400" text-anchor="middle">Room</text></g><g id="FeatureFood"><g transform="translate(454,659)" stroke="#818381" stroke-width="3.5" stroke-linejoin="round" stroke-linecap="round"><path d="M-2 11Q15 -8 37 11ZM-2 23Q3 17 8 23Q13 28 18 23Q25 17 37 23M-2 32H37V42H-2Z" /><path d="M3 34H38V39H3" fill="#D7E530" stroke="none" /></g><text x="470" y="728" fill="#545454" font-family="sans-serif" font-size="22" font-weight="400" text-anchor="middle">Food</text></g><g id="FeatureApps"><g transform="translate(89,760)" stroke="#818381" stroke-width="3.5" stroke-linejoin="round" stroke-linecap="round"><rect x="-1" y="0" width="15" height="15" rx="3" /><rect x="22" y="2" width="20" height="20" rx="4" fill="#D9E438" stroke="none" /><rect x="21" y="0" width="15" height="15" rx="3" /><rect x="-1" y="23" width="15" height="15" rx="3" /><path d="M28 24V38M21 31H35" /></g><text x="105" y="829" fill="#545454" font-family="sans-serif" font-size="22" font-weight="400" text-anchor="middle">Apps</text></g><g id="FeatureStudyProgress"><g transform="translate(272,760)" stroke="#818381" stroke-width="3.5" stroke-linejoin="round" stroke-linecap="round"><path d="M-2 6H13M-2 21H13M-2 36H13" /><path d="M24 3L34 13M34 3L24 13M24 23L29 28L38 18M24 38L29 43L38 33" stroke="#D9E438" stroke-width="7" /><path d="M22 1L32 11M32 1L22 11M22 21L27 26L36 16M22 36L27 41L36 31" /></g><text x="288" y="829" fill="#545454" font-family="sans-serif" font-size="22" font-weight="400" text-anchor="middle">Study progress</text></g><g id="FeatureMyCourses"><g transform="translate(454,760)" stroke="#818381" stroke-width="3.5" stroke-linejoin="round" stroke-linecap="round"><rect x="-4" y="1" width="37" height="32" rx="4" fill="#E3F769" /><path d="M-4 25H33M9 33L4 43M20 33L25 43M7 1V-3M15 24Q21 16 26 24" /></g><text x="470" y="829" fill="#545454" font-family="sans-serif" font-size="22" font-weight="400" text-anchor="middle">My Courses</text></g></g></g><g id="BottomSheet" transform="translate(0,10)"><path d="M14 920V878Q14 835 57 835H519Q562 835 562 878V920Z" fill="#F5F5F5" /><rect x="239" y="853" width="99" height="7" rx="2" fill="#409889" /><rect x="15" y="876" width="545" height="44" rx="0" fill="#FFFFFF" /><g id="PublicNewsPreview"><text x="44" y="911" font-family="sans-serif" font-size="16" fill="#929D96">DEMO public content preview</text></g><rect x="544" y="879" width="13" height="80" rx="7" fill="#FFFFFF" stroke="#ECECEC" stroke-width="1.5" /></g><g id="Header"><rect x="0.5" y="0.5" width="575" height="99" rx="0" fill="#FFFFFF" stroke="#D1D1D1" stroke-width="1" /><g id="Menu"><path d="M25 53H58M25 65H58M25 77H58" stroke="#151515" stroke-width="3.4" stroke-linecap="round" /></g><g id="Search"><circle cx="526" cy="63" r="13" stroke="#131313" stroke-width="3.5" /><path d="M535 73L542 80" stroke="#131313" stroke-width="3.5" stroke-linecap="round" /></g><text x="288" y="75" fill="#171717" font-family="sans-serif" font-size="25" font-weight="700" text-anchor="middle">Hi, Student</text><g id="DemoNotice"><rect x="444" y="7" width="116" height="25" rx="6" fill="#FFF0CF" /><text x="502" y="25" fill="#775313" font-family="sans-serif" font-size="14" font-weight="700" text-anchor="middle">DEMO DATA</text></g></g><g id="BottomNavigation">
    <rect x="0" y="920" width="576" height="104" fill="#FFFFFF" />
    <g id="NavHome">
      <rect x="0" y="920" width="115" height="104" fill="#FFFFFF" fill-opacity="0" /><circle cx="58" cy="946" r="22" fill="#F2F9B4" /><path d="M44.5 944L57.5 934L70.5 944V962H61.5V950H53.5V962H44.5Z" stroke="#414141" stroke-width="3.5" stroke-linecap="round" stroke-linejoin="round" />
    <text x="58" y="989" fill="#414141" font-family="sans-serif" font-size="14" text-anchor="middle">Home</text></g>
    <g id="NavCalendar">
      <rect x="115" y="920" width="115" height="104" fill="#FFFFFF" fill-opacity="0" /><rect x="161" y="937" width="24" height="25" stroke="#9FB0BA" stroke-width="3.5" />
      <path d="M166 933V940M181 933V940M161 945H185M167 950H178M167 956H178" stroke="#9FB0BA" stroke-width="3.5" stroke-linecap="square" />
    <text x="173" y="989" fill="#9FAFB9" font-family="sans-serif" font-size="14" text-anchor="middle">Calendar</text></g>
    <g id="NavQR">
      <circle cx="288.5" cy="949.5" r="49.5" fill="#54B39F" />
      <path d="M271 932H281V942H271ZM296 932H306V942H296ZM271 956H281V966H271Z" fill="#FFFFFF" />
      <path d="M274.5 935.5H277.5V938.5H274.5ZM299.5 935.5H302.5V938.5H299.5ZM274.5 959.5H277.5V962.5H274.5Z" fill="#54B39F" />
      <path d="M285 932H289V938H285ZM286 943H290V947H286ZM273 946H279V951H273ZM282 949H289V954H282ZM290 951H295V957H290ZM300 946H306V950H300ZM297 953H302V957H297ZM304 953H307V963H304ZM286 960H290V966H286ZM295 961H300V966H295Z" fill="#FFFFFF" />
    </g>
    <g id="NavNotification">
      <path d="M390 935.5H417.5V956.5H407L399.5 963V956.5H390Z" stroke="#9FB0BA" stroke-width="3.5" stroke-linejoin="round" />
    <text x="403" y="989" fill="#9FAFB9" font-family="sans-serif" font-size="14" text-anchor="middle">Notification</text></g>
    <g id="NavMore">
      <rect x="500" y="934" width="35" height="30" rx="2" stroke="#929D96" stroke-width="3.5" />
      <path d="M507 967H528" stroke="#929D96" stroke-width="3.5" stroke-linecap="round" />
    <text x="518" y="989" fill="#9FAFB9" font-family="sans-serif" font-size="14" text-anchor="middle">More</text></g>
  </g>
</g></svg>