<?xml version='1.0' encoding='utf-8'?>
<svg xmlns="http://www.w3.org/2000/svg" width="576" height="1024" viewBox="0 0 576 1024"><title>Payment Portal — observed menu</title><desc>From E-NATIVE-PAYREC-10. Synthetic underlying financial title. Editable approximate browser chrome; blank does not establish service/login success or failure. Loading transition timing is a demo proxy. External browser/share/copy/refresh not executed or wired.</desc><rect x="0" y="0" width="576" height="1024" fill="#FFFFFF" id="ScreenBackground" /><g id="DetailHeader"><rect x="0" y="0" width="576" height="100" fill="#FFFFFF" stroke="#CCCCCC" /><g id="Back"><rect x="8" y="25" width="48" height="60" fill="#FFFFFF" fill-opacity="0.001" /><path d="M35 54L26 64L35 74" fill="none" stroke="#242424" stroke-width="7" stroke-linecap="round" /></g><text x="69" y="65" font-family="sans-serif" font-size="27" fill="#242424" font-weight="700">Example record A · DEMO</text><text x="560" y="20" font-family="sans-serif" font-size="10" fill="#876B39" text-anchor="end">SYNTHETIC VALUES</text></g><g id="NoticeWebview"><rect x="8" y="77" width="561" height="947" fill="#F6F8F5" rx="23" stroke="#C9CBC9" /><rect x="9" y="151" width="559" height="728" fill="#FFFFFF" /><rect x="9" y="141" width="559" height="11" fill="#DEDEDE" /><g id="ClosePortal"><rect x="15" y="87" width="52" height="49" fill="#FFFFFF" fill-opacity="0.001" /><path d="M32 104L52 125M52 104L32 125" fill="none" stroke="#454B4A" stroke-width="3.5" stroke-linecap="round" /></g><g id="PortalMore"><rect x="496" y="87" width="63" height="49" fill="#FFFFFF" fill-opacity="0.001" /><circle cx="515" cy="114" r="4" fill="#424645" /><circle cx="528" cy="114" r="4" fill="#424645" /><circle cx="541" cy="114" r="4" fill="#424645" /></g><g id="BrowserFooter"><rect x="0" y="879" width="576" height="145" fill="#F6F8F5" /><path d="M8 879H568" fill="none" stroke="#C5C5C5" stroke-width="1" /><path d="M56 910L42 925L56 940M110 910L124 925L110 940" fill="none" stroke="#BABEBD" stroke-width="3.5" /><rect x="150" y="894" width="388" height="62" fill="#FFFFFF" rx="13" stroke="#AAAAAA" /><path d="M177 924V922Q177 914 182 914Q187 914 187 922V924" fill="none" stroke="#444444" stroke-width="2.5" /><rect x="176" y="923" width="12" height="11" fill="#444444" rx="1.5" /><text x="200" y="934" font-family="sans-serif" font-size="20" fill="#888888">www40.polyu.edu.hk/fos...</text><g id="NoticeReloadUnverified"><rect x="488" y="900" width="43" height="47" fill="#FFFFFF" fill-opacity="0.001" /><path d="M518 921A13 13 0 1 0 523 930M511 912L519 920L510 925" fill="none" stroke="#444444" stroke-width="2.8" /></g></g><text x="288" y="123" font-family="sans-serif" font-size="20" fill="#202020" text-anchor="middle">Student Account Portal</text></g><g id="NoticeMenuOverlay"><rect x="0" y="0" width="576" height="1024" fill="#000000" fill-opacity=".7" /><rect x="18" y="639" width="540" height="258" fill="#FFFFFF" rx="20" /><g id="SystemBrowserUnverified"><rect x="18" y="639" width="540" height="86" fill="#FFFFFF" fill-opacity="0.001" /><text x="288" y="693" font-family="sans-serif" font-size="27" fill="#000000" text-anchor="middle">Open in system browser</text></g><g id="ShareUnverified"><rect x="18" y="725" width="540" height="86" fill="#FFFFFF" fill-opacity="0.001" /><text x="288" y="779" font-family="sans-serif" font-size="27" fill="#000000" text-anchor="middle">Share via...</text></g><g id="CopyUnverified"><rect x="18" y="811" width="540" height="86" fill="#FFFFFF" fill-opacity="0.001" /><text x="288" y="865" font-family="sans-serif" font-size="27" fill="#000000" text-anchor="middle">Copy link</text></g><path d="M19 725H557M19 810H557" fill="none" stroke="#E7E7E7" stroke-width="1" /><g id="CancelPortalMenu"><rect x="18" y="909" width="540" height="86" fill="#FFFFFF" rx="20" /><text x="288" y="962" font-family="sans-serif" font-size="27" fill="#FF0000" text-anchor="middle">Cancel</text></g></g></svg>