<?xml version='1.0' encoding='utf-8'?>
<svg xmlns="http://www.w3.org/2000/svg" width="576" height="1024" viewBox="0 0 576 1024" fill="none"><title>Notification caller Search — negative</title><desc>Reconstruction from2026-10-03 native Computer Use public Search/VA210 samples.576x1024 editable chrome approximate; fixed query keyboard proxies not arbitrary text input. Public illustration/map raster. Cursor/halo and bottom rounded capture artifact omitted; its origin unknown. Native index scope, Return submission semantics and full app not_verified.</desc><rect id="ScreenBackground" width="576" height="1024" fill="#FFFFFF" /><g id="Header"><rect x="0.5" y="0.5" width="575" height="99" fill="#FFFFFF" stroke="#E1E1E1" /><g id="Back"><path d="M34.5 57.5L27 65L34.5 72.5" stroke="#202020" stroke-width="7" stroke-linecap="round" stroke-linejoin="round" fill="none" /><rect x="10" y="28" width="55" height="61" fill="#FFFFFF" fill-opacity="0.001" /></g><text x="288" y="75.5" fill="#141414" font-family="sans-serif" font-size="27" font-weight="400" text-anchor="middle">Search</text></g><g id="SearchInput"><rect x="13" y="113" width="552" height="74" rx="13" fill="#EFEFEF" /><g id="SearchIcon"><circle cx="37.5" cy="148.5" r="9.5" stroke="#575757" stroke-width="4.7" fill="none" /><path d="M44.5 156L51.5 163" stroke="#575757" stroke-width="4.7" stroke-linecap="round" fill="none" /></g><text x="76" y="159" fill="#141414" font-family="sans-serif" font-size="23" font-weight="400">zzhci2026</text><rect x="64" y="115" width="430" height="72" fill="#FFFFFF" fill-opacity="0.001" /></g><g id="ClearSearch"><circle cx="532.5" cy="149.5" r="13" fill="#575757" /><path d="M528 145L537 154M537 145L528 154" stroke="#FFFFFF" stroke-width="3.2" fill="none" /><rect x="502" y="115" width="60" height="71" fill="#FFFFFF" fill-opacity="0.001" /></g><path d="M0 199.5H576" stroke="#DDDDDD" stroke-width="1.5" fill="none" /><g id="NoResults"><g id="NoResultsIcon"><path d="M254 327A21 21 0 1 1 274 349" stroke="#31917D" stroke-width="8" fill="none" /><path d="M291 346L314 368" stroke="#31917D" stroke-width="8" fill="none" /><path d="M243 335L264 356M264 335L243 356" stroke="#31917D" stroke-width="5" fill="none" /></g><text x="288" y="435" fill="#575757" font-family="sans-serif" font-size="32" font-weight="700" text-anchor="middle">No record found</text><text x="288" y="486" fill="#555555" font-family="sans-serif" font-size="27" font-weight="400" text-anchor="middle">Sorry, We were not able to find a</text><text x="288" y="522" fill="#555555" font-family="sans-serif" font-size="27" font-weight="400" text-anchor="middle" xml:space="preserve">match.  Please try again with</text><text x="288" y="558" fill="#555555" font-family="sans-serif" font-size="27" font-weight="400" text-anchor="middle">some different keywords</text></g><g id="DecorativeWaves"><path d="M0 665Q6 659 17 659H432Q466 673 496 660H576V1024H0Z" fill="#FCEDE7" /><path d="M0 668Q42 680 83 659H195Q225 678 255 659H321Q355 680 380 676Q419 665 435 674Q500 714 551 710L576 669V1024H0Z" fill="#E7F19B" /><path d="M0 665C66 660 91 699 133 710C160 719 186 688 211 693C241 697 268 742 296 740C326 738 355 704 391 703C432 699 459 746 493 751C524 759 553 704 576 669V1024H0Z" fill="#EBF8FF" /></g></svg>